# Blender v2.75 (sub 0) OBJ File: 'Sharock.blend'
# www.blender.org
mtllib SharockFootLeft.mtl
o Icosphere.002_Icosphere.001
v 0.880047 0.139333 0.000481
v 0.705902 0.320905 -0.276580
v 0.690602 0.368350 0.111957
v 0.737622 0.158564 0.288566
v 0.729709 -0.012402 0.090312
v 0.724483 -0.006671 -0.272175
v 0.359443 0.358525 -0.098171
v 0.360178 0.288013 0.248905
v 0.389026 0.064562 0.264418
v 0.374098 -0.011524 -0.148219
v 0.388581 0.128905 -0.341874
v 0.238479 0.124053 -0.025840
vt 0.721895 0.804583
vt 0.678863 0.866792
vt 0.668302 0.773940
vt 0.756903 0.866792
vt 0.718436 0.733258
vt 0.758888 0.780645
vt 0.918384 0.813682
vt 0.841443 0.827815
vt 0.863268 0.743364
vt 0.468689 0.867525
vt 0.464662 0.775039
vt 0.547488 0.817166
vt 0.229484 0.865441
vt 0.172949 0.865987
vt 0.176167 0.785965
vt 0.368384 0.496060
vt 0.373584 0.545276
vt 0.290653 0.545276
vt 0.359762 0.410142
vt 0.279045 0.446547
vt 0.918384 0.733258
vt 0.547488 0.900370
vt 0.229484 0.779099
vt 0.277978 0.402135
vt 0.248747 0.755972
vt 0.290933 0.687946
vt 0.309456 0.764564
vt 0.280400 0.833715
vt 0.332523 0.826473
vt 0.248747 0.480147
vt 0.332523 0.726984
vn 0.757600 0.650800 -0.049600
vn 0.858000 0.041800 -0.511900
vn 0.797200 0.483300 0.361800
vn 0.757700 -0.508900 0.408600
vn 0.703900 -0.710000 -0.021400
vn 0.202500 -0.001700 -0.979300
vn 0.046300 0.991800 -0.119300
vn 0.147200 0.656100 0.740200
vn 0.158100 -0.750900 0.641200
vn 0.008200 -0.999800 -0.015900
vn -0.274200 0.683300 -0.676600
vn -0.153800 0.968300 0.197000
vn -0.084600 0.058100 0.994700
vn -0.126000 -0.974800 0.184300
vn -0.196100 -0.786800 -0.585200
vn -0.858100 0.318500 -0.402700
vn -0.871500 0.480300 0.099400
vn -0.891500 -0.084200 0.445100
vn -0.619500 -0.767700 0.164000
vn -0.802800 -0.452600 -0.388200
usemtl Material.001
s off
f 1/1/1 2/2/1 3/3/1
f 2/2/2 1/1/2 6/4/2
f 1/1/3 3/3/3 4/5/3
f 1/1/4 4/5/4 5/6/4
f 1/1/5 5/6/5 6/4/5
f 2/7/6 6/8/6 11/9/6
f 3/10/7 2/11/7 7/12/7
f 4/13/8 3/14/8 8/15/8
f 5/16/9 4/17/9 9/18/9
f 6/19/10 5/16/10 10/20/10
f 2/7/11 11/9/11 7/21/11
f 3/10/12 7/12/12 8/22/12
f 4/13/13 8/15/13 9/23/13
f 5/16/14 9/18/14 10/20/14
f 6/19/15 10/20/15 11/24/15
f 7/25/16 11/26/16 12/27/16
f 8/28/17 7/25/17 12/27/17
f 9/29/18 8/28/18 12/27/18
f 10/20/19 9/18/19 12/30/19
f 11/26/20 10/31/20 12/27/20
