# Blender v2.75 (sub 0) OBJ File: 'Sharock.blend'
# www.blender.org
mtllib SharockFootRight.mtl
o Icosphere.001_Icosphere.005
v -0.102452 0.180371 0.012186
v -0.307387 0.284525 -0.254999
v -0.314856 0.350217 0.111872
v -0.249732 0.202782 0.263049
v -0.185926 0.006164 0.164411
v -0.213470 -0.007187 -0.242905
v -0.645931 0.343181 -0.086288
v -0.631786 0.278900 0.191278
v -0.596195 0.019070 0.271894
v -0.634375 -0.011524 -0.148219
v -0.598998 0.133404 -0.280517
v -0.769995 0.124053 -0.025840
vt 0.348192 0.563639
vt 0.348192 0.664940
vt 0.248747 0.648115
vt 0.252534 0.545276
vt 0.464662 0.907754
vt 0.385964 0.889391
vt 0.464662 0.851875
vt 0.560121 0.896454
vt 0.586125 0.837698
vt 0.629285 0.897849
vt 0.547488 0.808499
vt 0.583539 0.775039
vt 0.629285 0.801387
vt 0.015260 0.801346
vt 0.084892 0.779099
vt 0.051013 0.871376
vt 0.389212 0.799201
vt 0.130421 0.780971
vt 0.172949 0.788162
vt 0.172949 0.864983
vt 0.108794 0.872056
vt 0.000000 0.879347
vt 0.451287 0.775039
vt 0.084892 0.877927
vt 0.758888 0.784758
vt 0.803839 0.733258
vt 0.814567 0.797259
vt 0.779130 0.848768
vt 0.841443 0.861519
vt 0.270225 0.687946
vt 0.841443 0.762307
vn 0.002600 -0.998600 0.052800
vn 0.580500 0.803500 -0.132100
vn 0.813200 0.239800 -0.530300
vn 0.679500 0.649700 0.340900
vn 0.863100 0.027100 0.504300
vn 0.885100 -0.463200 -0.044700
vn 0.093000 -0.011300 -0.995600
vn 0.083300 0.981200 -0.174000
vn 0.012500 0.718600 0.695400
vn 0.223500 -0.378200 0.898400
vn -0.259100 0.624400 -0.736900
vn -0.158300 0.960100 0.230400
vn -0.123400 0.278600 0.952400
vn -0.161700 -0.643500 -0.748200
vn -0.795500 0.306200 -0.522900
vn -0.838600 0.519800 0.163100
vn -0.856300 0.042400 0.514800
vn -0.649200 -0.752100 0.113800
vn -0.786800 -0.300200 -0.539300
usemtl Material.001
s off
f 5/1/1 9/2/1 10/3/1 6/4/1
f 1/5/2 2/6/2 3/7/2
f 2/8/3 1/9/3 6/10/3
f 1/9/4 3/11/4 4/12/4
f 1/9/5 4/12/5 5/13/5
f 1/9/6 5/13/6 6/10/6
f 2/14/7 6/15/7 11/16/7
f 3/7/8 2/6/8 7/17/8
f 4/18/9 3/19/9 8/20/9
f 5/15/10 4/18/10 9/21/10
f 2/14/11 11/16/11 7/22/11
f 3/7/12 7/17/12 8/23/12
f 4/18/13 8/20/13 9/21/13
f 6/15/14 10/24/14 11/16/14
f 7/25/15 11/26/15 12/27/15
f 8/28/16 7/25/16 12/27/16
f 9/29/17 8/28/17 12/27/17
f 10/3/18 9/2/18 12/30/18
f 11/26/19 10/31/19 12/27/19
