# Blender v2.75 (sub 0) OBJ File: 'Cap.blend'
# www.blender.org
mtllib Cap.mtl
o Cube_Cube.001
v -0.485233 0.154082 1.050135
v -0.485233 0.290608 0.907106
v -0.485233 0.154082 -0.339380
v -0.485233 0.290608 -0.184064
v 0.485233 0.154082 1.050135
v 0.485233 0.290608 0.907106
v 0.485233 0.154082 -0.339380
v 0.485233 0.290608 -0.184063
v -0.618818 0.183249 1.057304
v -0.618817 0.309401 0.361521
v -0.502656 0.222345 -0.334263
v -0.618817 0.135289 0.361521
v 0.000000 0.309401 -0.288776
v 0.502656 0.222345 -0.334262
v 0.000000 0.150119 -0.370075
v 0.618817 0.309401 0.361521
v 0.618817 0.183249 1.057305
v 0.618817 0.135289 0.361521
v -0.000000 0.309401 1.057305
v -0.000000 0.173162 1.137508
v -0.000000 0.345350 0.361521
v -0.000000 0.155898 1.438848
v 0.655768 0.222345 0.361521
v 0.000000 0.222345 -0.367286
v -0.655769 0.222345 0.361521
v -0.618817 0.189466 0.361521
v -0.485233 0.208259 1.050135
v 0.000000 0.189466 -0.334262
v -0.485233 0.208259 -0.184064
v 0.618817 0.189466 0.361521
v 0.485233 0.208259 -0.184063
v -0.000000 0.189466 1.137508
v 0.485233 0.208259 1.050135
v -0.000000 0.153517 0.361521
v -0.552025 0.256477 0.982205
v -0.242617 0.300004 0.982205
v 0.552025 0.256477 0.982205
v 0.242616 0.300004 0.982205
v -0.000000 0.265873 1.200967
v 0.309408 0.181663 1.341992
v -0.309409 0.181663 1.341992
v -0.276013 0.261175 1.091586
v 0.276012 0.261175 1.091586
v -0.485233 -0.178527 -0.339380
v 0.485233 -0.178527 -0.339380
v -0.618817 -0.167178 0.361521
v 0.000000 -0.161694 -0.370075
v 0.618817 -0.167178 0.361521
v -0.527942 -0.443699 -0.010743
v 0.532355 -0.443699 -0.010742
v -0.485233 0.154082 1.050135
v -0.485233 0.154082 -0.339380
v 0.485233 0.154082 1.050135
v 0.485233 0.154082 -0.339380
v -0.618817 0.135289 0.361521
v 0.000000 0.150119 -0.370075
v 0.618817 0.135289 0.361521
v -0.618817 0.189466 0.361521
v -0.485233 0.208259 1.050135
v 0.000000 0.189466 -0.334262
v -0.485233 0.208259 -0.184064
v 0.618817 0.189466 0.361521
v 0.485233 0.208259 -0.184063
v 0.485233 0.208259 1.050135
v -0.485233 -0.178527 -0.339380
v 0.485233 -0.178527 -0.339380
v -0.618817 -0.167178 0.361521
v 0.000000 -0.161694 -0.370075
v 0.618817 -0.167178 0.361521
v -0.527942 -0.443699 -0.010743
v 0.532355 -0.443699 -0.010742
vn -0.951100 -0.227100 -0.209300
vn 0.065400 0.058000 -0.996200
vn 0.209400 -0.975500 0.067200
vn 0.024900 -0.996600 0.079200
vn -0.177200 0.000000 -0.984200
vn -0.050500 0.997200 -0.055100
vn -0.057900 0.997100 0.050200
vn 0.057900 0.997100 0.050200
vn 0.050500 0.997200 -0.055100
vn 0.828200 -0.529100 0.184600
vn 0.041200 -0.672500 0.738900
vn -0.981700 0.000000 -0.190400
vn -0.024900 -0.996600 0.079200
vn 0.055700 0.906300 0.419000
vn -0.396500 0.808200 0.435400
vn 0.905000 -0.384100 -0.182800
vn 0.895300 0.380000 -0.232300
vn 0.434200 0.900500 0.023100
vn -0.062800 0.038500 -0.997300
vn -0.183000 0.658400 -0.730100
vn 0.027000 0.911200 -0.411000
vn -0.920200 -0.390600 0.026900
vn -0.895300 0.380000 0.232300
vn -0.791800 0.585500 -0.174200
vn 0.054600 -0.997200 -0.051500
vn 0.058000 -0.997600 0.038500
vn -0.058000 -0.997600 0.038500
vn -0.054600 -0.997200 -0.051500
vn -0.982300 0.000000 0.187200
vn -0.065200 -0.942200 0.328700
vn 0.981700 0.000000 -0.190400
vn 0.177200 0.000000 -0.984200
vn -0.128900 0.950000 0.284500
vn -0.133100 0.946100 0.295200
vn -0.137300 0.942100 0.306000
vn 0.128900 0.950000 0.284500
vn 0.128500 0.946300 0.296700
vn 0.125800 0.949400 0.287700
vn 0.063100 0.000000 0.998000
vn 0.982300 0.000000 0.187200
vn -0.063100 0.000000 0.998000
vn 0.980000 0.072200 0.185600
vn -0.905000 -0.384100 -0.182800
vn 0.062800 0.038500 -0.997300
vn 0.920200 -0.390600 0.026900
vn -0.065100 -0.996200 -0.057100
vn -0.197800 -0.957600 0.209700
vn -0.057900 0.997100 -0.048500
vn -0.054600 0.997200 0.051500
vn -0.053300 0.997500 0.047400
vn 0.053300 0.997500 0.047400
vn 0.054600 0.997200 0.051500
vn 0.057900 0.997100 -0.048500
vn 0.065200 -0.942200 0.328700
vn 0.197800 -0.957600 0.209700
vn 0.065100 -0.996200 -0.057100
vn 0.951100 -0.227100 -0.209300
vn 0.791800 0.585500 -0.174200
vn 0.895300 0.380000 0.232300
vn 0.696000 0.713900 0.077100
vn -0.065400 0.058000 -0.996200
vn -0.027000 0.911200 -0.411000
vn 0.183000 0.658400 -0.730100
vn -0.209400 -0.975500 0.067200
vn -0.434200 0.900500 0.023100
vn -0.696000 0.713900 0.077100
vn -0.895300 0.380000 -0.232300
vn 0.057900 -0.997100 -0.048500
vn 0.047000 -0.997800 0.046200
vn -0.047000 -0.997800 0.046200
vn -0.057900 -0.997100 -0.048500
vn -0.828200 -0.529100 0.184600
vn -0.041200 -0.672500 0.738900
vn -0.055700 0.906300 0.419000
vn -0.125800 0.949400 0.287700
vn -0.128500 0.946300 0.296700
vn 0.396500 0.808200 0.435400
vn 0.137300 0.942100 0.306000
vn 0.133100 0.946100 0.295200
vn -0.980900 0.056300 0.186000
vn -0.828200 0.529100 -0.184600
vn -0.041200 0.672500 -0.738900
vn 0.981700 0.000000 0.190400
vn 0.982300 0.000000 -0.187200
vn 0.065200 0.942200 -0.328700
vn -0.981700 0.000000 0.190400
vn -0.063100 0.000000 -0.998000
vn -0.982300 0.000000 -0.187200
vn 0.063100 0.000000 -0.998000
vn -0.980000 -0.072200 -0.185600
vn -0.065200 0.942200 -0.328700
vn 0.828200 0.529100 -0.184600
vn 0.041200 0.672500 -0.738900
vn 0.980900 -0.056300 -0.186000
usemtl Material.001
s off
f 25//1 11//1 3//1
f 24//2 14//2 7//2
f 17//3 5//3 18//3
f 20//4 41//4 1//4
f 20//5 32//5 33//5
f 21//6 13//6 4//6
f 36//7 21//7 10//7
f 38//8 16//8 21//8
f 8//9 13//9 21//9
f 3//10 29//10 26//10
f 3//11 15//11 28//11
f 5//12 33//12 30//12
f 5//13 40//13 20//13
f 39//14 22//14 40//14
f 35//15 9//15 41//15
f 23//16 18//16 7//16
f 8//17 16//17 23//17
f 23//18 6//18 37//18
f 24//19 15//19 3//19
f 4//20 13//20 24//20
f 8//21 14//21 24//21
f 9//22 25//22 12//22
f 2//23 10//23 25//23
f 4//24 11//24 25//24
f 34//25 28//25 31//25
f 34//26 30//26 33//26
f 27//27 26//27 34//27
f 29//28 28//28 34//28
f 7//29 18//29 30//29
f 7//30 31//30 28//30
f 1//31 12//31 26//31
f 20//32 1//32 27//32
f 39//33 42//33 41//33
f 36//34 42//34 39//34
f 2//35 35//35 42//35
f 37//36 43//36 40//36
f 6//37 38//37 43//37
f 38//38 19//38 39//38
f 3//39 47//39 15//39
f 12//40 46//40 44//40
f 18//29 7//29 45//29
f 7//41 15//41 47//41
f 5//12 18//12 48//12
f 12//31 1//31 46//31
f 44//42 46//42 49//42
f 12//43 25//43 3//43
f 15//44 24//44 7//44
f 23//45 17//45 18//45
f 41//46 20//46 22//46
f 41//47 9//47 1//47
f 5//5 20//5 33//5
f 10//48 21//48 4//48
f 21//49 36//49 19//49
f 36//50 10//50 2//50
f 16//51 38//51 6//51
f 38//52 21//52 19//52
f 16//53 8//53 21//53
f 12//40 3//40 26//40
f 29//54 3//54 28//54
f 18//12 5//12 30//12
f 40//55 5//55 17//55
f 40//56 22//56 20//56
f 43//36 39//36 40//36
f 42//33 35//33 41//33
f 14//57 23//57 7//57
f 14//58 8//58 23//58
f 6//59 23//59 16//59
f 23//60 37//60 17//60
f 11//61 24//61 3//61
f 11//62 4//62 24//62
f 13//63 8//63 24//63
f 1//64 9//64 12//64
f 25//65 35//65 2//65
f 35//66 25//66 9//66
f 10//67 4//67 25//67
f 30//68 34//68 31//68
f 32//69 34//69 33//69
f 32//70 27//70 34//70
f 26//71 29//71 34//71
f 31//72 7//72 30//72
f 15//73 7//73 28//73
f 27//31 1//31 26//31
f 32//32 20//32 27//32
f 22//74 39//74 41//74
f 19//75 36//75 39//75
f 36//76 2//76 42//76
f 17//77 37//77 40//77
f 37//78 6//78 43//78
f 43//79 38//79 39//79
f 44//39 47//39 3//39
f 3//40 12//40 44//40
f 48//29 18//29 45//29
f 45//41 7//41 47//41
f 48//80 45//80 50//80
f 52//81 58//81 61//81
f 52//82 60//82 56//82
f 53//83 62//83 64//83
f 54//84 62//84 57//84
f 54//85 60//85 63//85
f 51//86 58//86 55//86
f 52//87 56//87 68//87
f 55//88 65//88 67//88
f 57//84 66//84 54//84
f 54//89 68//89 56//89
f 53//83 69//83 57//83
f 55//86 67//86 51//86
f 65//90 70//90 67//90
f 55//88 58//88 52//88
f 61//91 60//91 52//91
f 57//83 62//83 53//83
f 63//92 62//92 54//92
f 56//93 60//93 54//93
f 59//86 58//86 51//86
f 65//87 52//87 68//87
f 52//88 65//88 55//88
f 69//84 66//84 57//84
f 66//89 68//89 54//89
f 69//94 71//94 66//94
